<svg width="64" height="64" viewBox="0 0 64 64" fill="none" xmlns="http://www.w3.org/2000/svg">
<path d="M26.6667 29.3332H13.3333C11.8667 29.3332 10.6667 28.1332 10.6667 26.6665V13.3332C10.6667 11.8665 11.8667 10.6665 13.3333 10.6665H26.6667C28.1333 10.6665 29.3333 11.8665 29.3333 13.3332V26.6665C29.3333 28.1332 28.1333 29.3332 26.6667 29.3332Z" stroke="white" stroke-width="4" stroke-miterlimit="10"/>
<path d="M26.6667 54.6398H13.3333C11.8667 54.6398 10.6667 53.4398 10.6667 51.9731V38.6398C10.6667 37.1731 11.8667 35.9731 13.3333 35.9731H26.6667C28.1333 35.9731 29.3333 37.1731 29.3333 38.6398V51.9731C29.3333 53.4398 28.1333 54.6398 26.6667 54.6398Z" stroke="white" stroke-width="4" stroke-miterlimit="10"/>
<path d="M52 29.3332H38.6667C37.2 29.3332 36 28.1332 36 26.6665V13.3332C36 11.8665 37.2 10.6665 38.6667 10.6665H52C53.4667 10.6665 54.6667 11.8665 54.6667 13.3332V26.6665C54.6667 28.1332 53.4667 29.3332 52 29.3332Z" stroke="white" stroke-width="4" stroke-miterlimit="10"/>
<path d="M45.3333 54.6398C40.1733 54.6398 36 50.4665 36 45.3065C36 40.1465 40.1733 35.9731 45.3333 35.9731C50.4933 35.9731 54.6667 40.1465 54.6667 45.3065C54.6667 50.4665 50.4933 54.6398 45.3333 54.6398Z" stroke="white" stroke-width="4" stroke-miterlimit="10"/>
</svg>
