<svg width="77" height="77" viewBox="0 0 77 77" fill="none" xmlns="http://www.w3.org/2000/svg">
<path d="M49.7609 9.07959H27.2384C19.2497 9.07959 17.4851 13.0579 16.4584 17.9346L12.833 35.2917H64.1663L60.5409 17.9346C59.5143 13.0579 57.7497 9.07959 49.7609 9.07959Z" stroke="white" stroke-width="1.5" stroke-linecap="round" stroke-linejoin="round"/>
<path d="M70.5515 63.5891C70.9044 67.3429 67.8886 70.5833 64.0386 70.5833H58.0069C54.5419 70.5833 54.0607 69.1075 53.4511 67.2787L52.8094 65.3537C51.9111 62.7229 51.3336 60.9583 46.7136 60.9583H30.2869C25.6669 60.9583 24.9932 62.9475 24.1911 65.3537L23.5494 67.2787C22.9398 69.1075 22.4586 70.5833 18.9936 70.5833H12.9619C9.11192 70.5833 6.09609 67.3429 6.449 63.5891L8.24567 44.0504C8.69484 39.2379 9.62525 35.2916 18.0311 35.2916H58.9694C67.3753 35.2916 68.3057 39.2379 68.7548 44.0504L70.5515 63.5891Z" stroke="white" stroke-width="1.5" stroke-linecap="round" stroke-linejoin="round"/>
<path d="M12.8333 25.6666H9.625" stroke="white" stroke-width="1.5" stroke-linecap="round" stroke-linejoin="round"/>
<path d="M67.3753 25.6666H64.167" stroke="white" stroke-width="1.5" stroke-linecap="round" stroke-linejoin="round"/>
<path d="M38.5 9.625V16.0417" stroke="white" stroke-width="1.5" stroke-linecap="round" stroke-linejoin="round"/>
<path d="M33.6875 16.0416H43.3125" stroke="white" stroke-width="1.5" stroke-linecap="round" stroke-linejoin="round"/>
<path d="M19.25 48.125H28.875" stroke="white" stroke-width="1.5" stroke-linecap="round" stroke-linejoin="round"/>
<path d="M48.125 48.125H57.75" stroke="white" stroke-width="1.5" stroke-linecap="round" stroke-linejoin="round"/>
</svg>
