<svg width="77" height="77" viewBox="0 0 77 77" fill="none" xmlns="http://www.w3.org/2000/svg">
<path d="M27.8223 45.9749C27.8223 50.1136 30.9985 53.4503 34.9448 53.4503H42.9977C46.4306 53.4503 49.2218 50.5307 49.2218 46.9374C49.2218 43.0232 47.5214 41.6436 44.9868 40.7453L32.0573 36.2536C29.5227 35.3553 27.8223 33.9757 27.8223 30.0616C27.8223 26.4682 30.6135 23.5486 34.0464 23.5486H42.0993C46.0456 23.5486 49.2218 26.8853 49.2218 31.0241" stroke="white" stroke-width="1.5" stroke-linecap="round" stroke-linejoin="round"/>
<path d="M38.5 19.25V57.75" stroke="white" stroke-width="1.5" stroke-linecap="round" stroke-linejoin="round"/>
<path d="M38.4998 70.5834C56.219 70.5834 70.5832 56.2192 70.5832 38.5C70.5832 20.7809 56.219 6.41669 38.4998 6.41669C20.7807 6.41669 6.4165 20.7809 6.4165 38.5C6.4165 56.2192 20.7807 70.5834 38.4998 70.5834Z" stroke="white" stroke-width="1.5" stroke-linecap="round" stroke-linejoin="round"/>
</svg>
