<svg width="77" height="77" viewBox="0 0 77 77" fill="none" xmlns="http://www.w3.org/2000/svg">
<path d="M28.8748 70.5833H48.1248C64.1665 70.5833 70.5832 64.1667 70.5832 48.125V28.875C70.5832 12.8333 64.1665 6.41667 48.1248 6.41667H28.8748C12.8332 6.41667 6.4165 12.8333 6.4165 28.875V48.125C6.4165 64.1667 12.8332 70.5833 28.8748 70.5833Z" stroke="white" stroke-width="1.5" stroke-linecap="round" stroke-linejoin="round"/>
<path d="M28.8752 32.0833C32.419 32.0833 35.2918 29.2105 35.2918 25.6667C35.2918 22.1228 32.419 19.25 28.8752 19.25C25.3313 19.25 22.4585 22.1228 22.4585 25.6667C22.4585 29.2105 25.3313 32.0833 28.8752 32.0833Z" stroke="white" stroke-width="1.5" stroke-linecap="round" stroke-linejoin="round"/>
<path d="M8.56641 60.7979L24.3835 50.1783C26.9181 48.4779 30.5756 48.6704 32.8535 50.6275L33.9122 51.5579C36.4147 53.7075 40.4572 53.7075 42.9597 51.5579L56.3064 40.1042C58.8089 37.9546 62.8514 37.9546 65.3539 40.1042L70.5835 44.5958" stroke="white" stroke-width="1.5" stroke-linecap="round" stroke-linejoin="round"/>
</svg>
