<svg width="52" height="52" viewBox="0 0 52 52" fill="none" xmlns="http://www.w3.org/2000/svg">
<path fill-rule="evenodd" clip-rule="evenodd" d="M30.1245 10.5229C27.727 8.55465 24.2729 8.55465 21.8755 10.5229L10.2503 20.067C9.24775 20.8901 8.66665 22.1191 8.66665 23.4162V39.0001C8.66665 41.3933 10.6067 43.3334 13 43.3334H39C41.3932 43.3334 43.3333 41.3933 43.3333 39.0001V23.4162C43.3333 22.1191 42.7522 20.8901 41.7496 20.067L30.1245 10.5229ZM19.1258 7.1737C23.1216 3.89327 28.8784 3.89327 32.8741 7.1737L44.4993 16.7178C46.5044 18.364 47.6666 20.8219 47.6666 23.4162V39.0001C47.6666 43.7866 43.7864 47.6668 39 47.6668H13C8.21351 47.6668 4.33331 43.7866 4.33331 39.0001V23.4162C4.33331 20.8219 5.49553 18.364 7.50067 16.7178L19.1258 7.1737Z" fill="white"/>
</svg>
