<svg width="77" height="77" viewBox="0 0 77 77" fill="none" xmlns="http://www.w3.org/2000/svg">
<path d="M33.6554 7.15457L17.6458 13.1541C13.9563 14.5337 10.9404 18.897 10.9404 22.8433V46.6812C10.9404 50.467 13.443 55.4399 16.4909 57.7178L30.2867 68.0167C34.8104 71.4175 42.2537 71.4175 46.7775 68.0167L60.5733 57.7178C63.6213 55.4399 66.1237 50.467 66.1237 46.6812V22.8433C66.1237 18.897 63.1079 14.5337 59.4183 13.1541L43.4087 7.15457C40.6817 6.15998 36.3183 6.15998 33.6554 7.15457Z" stroke="white" stroke-width="1.5" stroke-linecap="round" stroke-linejoin="round"/>
<path d="M38.5 35.035C38.3716 35.035 38.2112 35.035 38.0829 35.035C35.067 34.9388 32.6608 32.4363 32.6608 29.3883C32.6608 26.2763 35.1954 23.7416 38.3075 23.7416C41.4195 23.7416 43.9542 26.2763 43.9542 29.3883C43.9221 32.4683 41.5158 34.9388 38.5 35.035Z" stroke="white" stroke-width="1.5" stroke-linecap="round" stroke-linejoin="round"/>
<path d="M32.1154 44.0184C29.0354 46.0717 29.0354 49.4404 32.1154 51.4938C35.6125 53.8359 41.3554 53.8359 44.8525 51.4938C47.9325 49.4404 47.9325 46.0717 44.8525 44.0184C41.3875 41.6763 35.6446 41.6763 32.1154 44.0184Z" stroke="white" stroke-width="1.5" stroke-linecap="round" stroke-linejoin="round"/>
</svg>
