<?xml version="1.0" encoding="utf-8"?>
<!-- Svg Vector Icons : http://www.onlinewebfonts.com/icon -->
<!DOCTYPE svg PUBLIC "-//W3C//DTD SVG 1.1//EN" "http://www.w3.org/Graphics/SVG/1.1/DTD/svg11.dtd">
<svg version="1.1" xmlns="http://www.w3.org/2000/svg" xmlns:xlink="http://www.w3.org/1999/xlink" x="0px" y="0px" viewBox="0 0 256 256" enable-background="new 0 0 256 256" xml:space="preserve">
<metadata> Svg Vector Icons : http://www.onlinewebfonts.com/icon </metadata>
<g><g><g><path fill="#000000" d="M116.3,38c-15.7,2.4-30.5,8.6-43,18.2C69.2,59.3,61.4,67,57.9,71.4c-11.8,14.8-18.8,32.8-19.7,50.9l-0.3,5.5l-14,0.1L10,128l28.2,30.7c15.5,16.9,28.4,30.8,28.6,30.8c0.3,0,12.5-13.8,27.2-30.7l26.7-30.8l-14.7-0.1l-14.8-0.1l0.2-1.1c2.2-10.2,4.6-17.3,8.6-25.3c12.3-24.2,34.6-41.7,60.9-47.7c3.8-0.9,12.8-2.2,15.4-2.2h1.9l-1.2-0.9c-1.9-1.5-12.9-6.8-17.3-8.3c-5.6-2-12.1-3.6-17.9-4.4C135.8,37.1,122.2,37.1,116.3,38z"/><path fill="#000000" d="M162.4,96.7l-26.8,30.9l14.7,0.1l14.6,0.1l-0.2,1.5c-0.2,0.8-0.8,3.5-1.4,5.9c-7.9,31.9-33.2,57.6-64.9,66c-5.8,1.5-13.8,2.8-17.5,2.8c-1.3,0-2.4,0.2-2.4,0.5c0,1.1,11.1,6.6,18.7,9.2c43.2,14.9,90.7-4.6,111.4-45.8c5.5-11,8.6-22.4,9.3-35l0.3-4.9l13.8-0.2l13.8-0.2l-26.7-29.1c-14.6-16-27.4-29.9-28.4-30.9l-1.8-1.8L162.4,96.7z"/></g></g></g>
</svg>