<svg width="64" height="64" viewBox="0 0 64 64" fill="none" xmlns="http://www.w3.org/2000/svg">
<path d="M57.3333 32.6667C57.3333 39.2933 54.7333 45.3067 50.4667 49.72C46 54.4133 39.6667 57.3333 32.6667 57.3333C25.6667 57.3333 19.3333 54.4133 14.8667 49.72C10.6 45.3067 8 39.2933 8 32.6667C8 19.04 19.04 8 32.6667 8C46.2933 8 57.3333 19.04 57.3333 32.6667Z" stroke="white" stroke-width="4" stroke-miterlimit="10"/>
<path d="M32.6667 30.6668C37.4531 30.6668 41.3333 26.7866 41.3333 22.0002C41.3333 17.2137 37.4531 13.3335 32.6667 13.3335C27.8802 13.3335 24 17.2137 24 22.0002C24 26.7866 27.8802 30.6668 32.6667 30.6668Z" stroke="white" stroke-width="4" stroke-miterlimit="10"/>
<path d="M50.4667 49.7198C46 54.4132 39.6667 57.3332 32.6667 57.3332C25.6667 57.3332 19.3334 54.4132 14.8667 49.7198C17.24 42.1465 24.32 36.6665 32.6667 36.6665C41.0134 36.6665 48.0934 42.1465 50.4667 49.7198Z" stroke="white" stroke-width="4" stroke-miterlimit="10"/>
</svg>
