<svg width="77" height="77" viewBox="0 0 77 77" fill="none" xmlns="http://www.w3.org/2000/svg">
<path d="M36.7674 44.0503C41.7464 44.0503 45.7828 40.014 45.7828 35.0349C45.7828 30.0559 41.7464 26.0195 36.7674 26.0195C31.7883 26.0195 27.752 30.0559 27.752 35.0349C27.752 40.014 31.7883 44.0503 36.7674 44.0503Z" stroke="white" stroke-width="1.5" stroke-linecap="round" stroke-linejoin="round"/>
<path d="M53.4187 64.8083C53.4187 57.3329 45.9754 51.2369 36.7675 51.2369C27.5595 51.2369 20.1162 57.3008 20.1162 64.8083" stroke="white" stroke-width="1.5" stroke-linecap="round" stroke-linejoin="round"/>
<path d="M67.3753 40.1042C67.3753 56.9479 53.7399 70.5833 36.8962 70.5833C20.0524 70.5833 6.41699 56.9479 6.41699 40.1042C6.41699 23.2604 20.0524 9.625 36.8962 9.625C41.0991 9.625 45.1095 10.4591 48.767 11.9991C48.3499 13.2825 48.1253 14.63 48.1253 16.0417C48.1253 18.4479 48.7991 20.7258 49.9862 22.6508C50.6278 23.7417 51.462 24.7362 52.4245 25.5703C54.6703 27.6237 57.6541 28.875 60.9587 28.875C62.3703 28.875 63.7178 28.6503 64.9691 28.2012C66.5091 31.8587 67.3753 35.9012 67.3753 40.1042Z" stroke="white" stroke-width="1.5" stroke-linecap="round" stroke-linejoin="round"/>
<path d="M73.7917 16.0417C73.7917 17.0684 73.6633 18.0629 73.4067 19.0254C73.1179 20.3088 72.6046 21.56 71.9308 22.6509C70.3908 25.2496 67.9204 27.2708 64.9687 28.2012C63.7175 28.6504 62.37 28.875 60.9583 28.875C57.6537 28.875 54.67 27.6237 52.4242 25.5704C51.4617 24.7362 50.6275 23.7417 49.9858 22.6509C48.7988 20.7259 48.125 18.448 48.125 16.0417C48.125 14.63 48.3496 13.2825 48.7667 11.9992C49.3763 10.1383 50.4029 8.47011 51.7504 7.09053C54.0925 4.68428 57.365 3.20837 60.9583 3.20837C64.7442 3.20837 68.1771 4.84468 70.4871 7.47551C72.5404 9.75343 73.7917 12.7692 73.7917 16.0417Z" stroke="white" stroke-width="1.5" stroke-miterlimit="10" stroke-linecap="round" stroke-linejoin="round"/>
<path d="M65.7386 15.9775H56.1777" stroke="white" stroke-width="1.5" stroke-miterlimit="10" stroke-linecap="round" stroke-linejoin="round"/>
<path d="M60.958 11.2935V20.8863" stroke="white" stroke-width="1.5" stroke-miterlimit="10" stroke-linecap="round" stroke-linejoin="round"/>
</svg>
