<svg width="77" height="77" viewBox="0 0 77 77" fill="none" xmlns="http://www.w3.org/2000/svg">
<path d="M40.2007 65.5142H19.9241C9.78574 65.5142 6.41699 58.7767 6.41699 52.0071V24.9929C6.41699 14.8546 9.78574 11.4858 19.9241 11.4858H40.2007C50.3391 11.4858 53.7078 14.8546 53.7078 24.9929V52.0071C53.7078 62.1454 50.307 65.5142 40.2007 65.5142Z" stroke="white" stroke-width="1.5" stroke-linecap="round" stroke-linejoin="round"/>
<path d="M62.6262 54.8626L53.707 48.6063V28.3617L62.6262 22.1055C66.9895 19.0576 70.5829 20.9184 70.5829 26.2763V50.7238C70.5829 56.0817 66.9895 57.9426 62.6262 54.8626Z" stroke="white" stroke-width="1.5" stroke-linecap="round" stroke-linejoin="round"/>
<path d="M36.8955 35.2916C39.5534 35.2916 41.708 33.137 41.708 30.4791C41.708 27.8213 39.5534 25.6666 36.8955 25.6666C34.2376 25.6666 32.083 27.8213 32.083 30.4791C32.083 33.137 34.2376 35.2916 36.8955 35.2916Z" stroke="white" stroke-width="1.5" stroke-linecap="round" stroke-linejoin="round"/>
</svg>
