<svg width="77" height="77" viewBox="0 0 77 77" fill="none" xmlns="http://www.w3.org/2000/svg">
<path d="M40.6177 8.07898L40.5215 8.30356L31.2173 29.8956H22.0736C19.8919 29.8956 17.8065 30.3448 15.9136 31.1469L21.5282 17.7361L21.6565 17.4152L21.8811 16.9019C21.9452 16.7094 22.0094 16.5169 22.1057 16.3565C26.3086 6.63523 31.0569 4.42148 40.6177 8.07898Z" stroke="white" stroke-width="1.5" stroke-linecap="round" stroke-linejoin="round"/>
<path d="M57.9106 30.5373C56.4669 30.0881 54.9269 29.8956 53.3869 29.8956H31.2173L40.5215 8.30356L40.6177 8.07898C41.0989 8.2394 41.5481 8.46398 42.0294 8.65648L49.1198 11.6402C53.066 13.2765 55.8252 14.9769 57.4935 17.0302C57.8144 17.4152 58.071 17.7681 58.2956 18.1852C58.5844 18.6344 58.809 19.0836 58.9373 19.5648C59.0656 19.8536 59.1619 20.1423 59.226 20.399C60.0923 23.094 59.579 26.3986 57.9106 30.5373Z" stroke="white" stroke-width="1.5" stroke-linecap="round" stroke-linejoin="round"/>
<path d="M69.0487 45.553V51.8093C69.0487 52.4509 69.0166 53.0926 68.9845 53.7343C68.3749 64.9314 62.1187 70.578 50.2479 70.578H25.2229C24.4529 70.578 23.6829 70.5139 22.9449 70.4176C12.7424 69.7439 7.28827 64.2897 6.61452 54.0872C6.51827 53.3493 6.4541 52.5793 6.4541 51.8093V45.553C6.4541 39.1043 10.3683 33.5539 15.9508 31.1476C17.8758 30.3455 19.9291 29.8964 22.1108 29.8964H53.4241C54.9962 29.8964 56.5362 30.1209 57.9479 30.538C64.3324 32.4951 69.0487 38.4626 69.0487 45.553Z" stroke="white" stroke-width="1.5" stroke-linecap="round" stroke-linejoin="round"/>
<path d="M21.5278 17.7361L15.9132 31.1469C10.3307 33.5532 6.4165 39.1036 6.4165 45.5523V36.1519C6.4165 27.0403 12.8973 19.4365 21.5278 17.7361Z" stroke="white" stroke-width="1.5" stroke-linecap="round" stroke-linejoin="round"/>
<path d="M69.0388 36.1504V45.5509C69.0388 38.4925 64.3547 32.4929 57.938 30.5679C59.6063 26.3971 60.0876 23.1246 59.2855 20.3975C59.2213 20.1088 59.1251 19.82 58.9967 19.5634C64.9642 22.6434 69.0388 28.9638 69.0388 36.1504Z" stroke="white" stroke-width="1.5" stroke-linecap="round" stroke-linejoin="round"/>
</svg>
