<svg width="57" height="57" viewBox="0 0 57 57" fill="none" xmlns="http://www.w3.org/2000/svg">
<path d="M14.475 52.15C18.6 54.625 23.55 56 28.5 56C43.625 56 56 43.625 56 28.5C56 13.375 43.625 1 28.5 1C13.375 1 1 13.375 1 28.5C1 33.45 2.375 38.125 4.575 42.25L1.44044 54.306C1.24572 55.0549 1.93892 55.7317 2.68299 55.5191L14.475 52.15Z" stroke="white" stroke-width="1.5" stroke-miterlimit="10" stroke-linecap="round" stroke-linejoin="round"/>
<path d="M41 36.4125C41 36.8625 40.8998 37.325 40.687 37.775C40.4742 38.225 40.1988 38.65 39.8358 39.05C39.2223 39.725 38.5463 40.2125 37.7827 40.525C37.0315 40.8375 36.2178 41 35.3415 41C34.0646 41 32.7 40.7 31.2604 40.0875C29.8207 39.475 28.3811 38.65 26.9539 37.6125C25.5143 36.5625 24.1497 35.4 22.8478 34.1125C21.5583 32.8125 20.3941 31.45 19.355 30.025C18.3285 28.6 17.5023 27.175 16.9014 25.7625C16.3005 24.3375 16 22.975 16 21.675C16 20.825 16.1502 20.0125 16.4507 19.2625C16.7511 18.5 17.2268 17.8 17.8903 17.175C18.6915 16.3875 19.5679 16 20.4942 16C20.8448 16 21.1953 16.075 21.5083 16.225C21.8338 16.375 22.1217 16.6 22.347 16.925L25.2514 21.0125C25.4767 21.325 25.6395 21.6125 25.7521 21.8875C25.8648 22.15 25.9274 22.4125 25.9274 22.65C25.9274 22.95 25.8398 23.25 25.6645 23.5375C25.5018 23.825 25.2639 24.125 24.9634 24.425L24.012 25.4125C23.8743 25.55 23.8117 25.7125 23.8117 25.9125C23.8117 26.0125 23.8242 26.1 23.8493 26.2C23.8868 26.3 23.9244 26.375 23.9494 26.45C24.1748 26.8625 24.5628 27.4 25.1137 28.05C25.677 28.7 26.2779 29.3625 26.9289 30.025C27.6049 30.6875 28.2559 31.3 28.9194 31.8625C29.5704 32.4125 30.1087 32.7875 30.5343 33.0125C30.5969 33.0375 30.672 33.075 30.7596 33.1125C30.8598 33.15 30.9599 33.1625 31.0726 33.1625C31.2854 33.1625 31.4482 33.0875 31.5859 32.95L32.5373 32.0125C32.8503 31.7 33.1507 31.4625 33.4387 31.3125C33.7266 31.1375 34.0145 31.05 34.3275 31.05C34.5653 31.05 34.8157 31.1 35.0911 31.2125C35.3665 31.325 35.6545 31.4875 35.9675 31.7L40.1112 34.6375C40.4367 34.8625 40.662 35.125 40.7997 35.4375C40.9249 35.75 41 36.0625 41 36.4125Z" stroke="white" stroke-width="1.5" stroke-miterlimit="10"/>
</svg>
